name Walk9.mot
datacolumns 19
datarows 12
range 2.88700000 2.89800000
endheader

                time	   L_ground_force_vx	   L_ground_force_vy	   L_ground_force_vz	   L_ground_force_px	   L_ground_force_py	   L_ground_force_pz	   R_ground_force_vx	   R_ground_force_vy	   R_ground_force_vz	   R_ground_force_px	   R_ground_force_py	   R_ground_force_pz	   L_ground_torque_x	   L_ground_torque_y	   L_ground_torque_z	   R_ground_torque_x	   R_ground_torque_y	   R_ground_torque_z	
          2.88700000	          0.04869581	          0.13139964	         -0.00447257	         -0.00037345	          0.00000000	         -0.00008195	        -37.90361450	        705.36383527	        -41.72476621	          0.13132463	          0.00000000	          0.06431026	          0.00000000	          0.00037645	          0.00000000	          0.00000000	          3.06732184	          0.00000000	
          2.88800000	          0.04605445	          0.12262422	         -0.00438202	         -0.00036261	          0.00000000	         -0.00007950	        -37.40713885	        703.82962807	        -41.65590641	          0.13136780	          0.00000000	          0.06425772	          0.00000000	          0.00035830	          0.00000000	          0.00000000	          3.01346553	          0.00000000	
          2.88900000	          0.04346364	          0.11413155	         -0.00428260	         -0.00035133	          0.00000000	         -0.00007697	        -36.91200754	        702.29867774	        -41.59144547	          0.13141426	          0.00000000	          0.06420630	          0.00000000	          0.00034033	          0.00000000	          0.00000000	          2.96151429	          0.00000000	
          2.89000000	          0.04092887	          0.10592969	         -0.00417546	         -0.00033968	          0.00000000	         -0.00007436	        -36.41829318	        700.77196090	        -41.53121545	          0.13146403	          0.00000000	          0.06415599	          0.00000000	          0.00032261	          0.00000000	          0.00000000	          2.91143989	          0.00000000	
          2.89100000	          0.03845496	          0.09802490	         -0.00406165	         -0.00032773	          0.00000000	         -0.00007169	        -35.92606671	        699.25047438	        -41.47502874	          0.13151709	          0.00000000	          0.06410678	          0.00000000	          0.00030517	          0.00000000	          0.00000000	          2.86320844	          0.00000000	
          2.89200000	          0.03604608	          0.09042179	         -0.00394217	         -0.00031556	          0.00000000	         -0.00006897	        -35.43539740	        697.73523493	        -41.42267866	          0.13157344	          0.00000000	          0.06405866	          0.00000000	          0.00028806	          0.00000000	          0.00000000	          2.81678064	          0.00000000	
          2.89300000	          0.03370580	          0.08312345	         -0.00381795	         -0.00030324	          0.00000000	         -0.00006623	        -34.94635270	        696.22727838	        -41.37394009	          0.13163308	          0.00000000	          0.06401163	          0.00000000	          0.00027132	          0.00000000	          0.00000000	          2.77211214	          0.00000000	
          2.89400000	          0.03143713	          0.07613154	         -0.00368986	         -0.00029081	          0.00000000	         -0.00006347	        -34.45899793	        694.72765809	        -41.32857000	          0.13169601	          0.00000000	          0.06396566	          0.00000000	          0.00025498	          0.00000000	          0.00000000	          2.72915383	          0.00000000	
          2.89500000	          0.02924257	          0.06944643	         -0.00355873	         -0.00027835	          0.00000000	         -0.00006070	        -33.97339580	        693.23744243	        -41.28630817	          0.13176221	          0.00000000	          0.06392077	          0.00000000	          0.00023906	          0.00000000	          0.00000000	          2.68785231	          0.00000000	
          2.89600000	          0.02712409	          0.06306729	         -0.00342529	         -0.00026589	          0.00000000	         -0.00005794	        -33.48960605	        691.75771158	        -41.24687806	          0.13183168	          0.00000000	          0.06387693	          0.00000000	          0.00022359	          0.00000000	          0.00000000	          2.64815010	          0.00000000	
          2.89700000	          0.02508324	          0.05699222	         -0.00329026	         -0.00025349	          0.00000000	         -0.00005520	        -33.00768521	        690.28955377	        -41.20998790	          0.13190441	          0.00000000	          0.06383416	          0.00000000	          0.00020860	          0.00000000	          0.00000000	          2.60998604	          0.00000000	
          2.89800000	          0.02312113	          0.05121831	         -0.00315427	         -0.00024118	          0.00000000	         -0.00005248	        -32.52768683	        688.83406135	        -41.17533213	          0.13198039	          0.00000000	          0.06379244	          0.00000000	          0.00019409	          0.00000000	          0.00000000	          2.57329562	          0.00000000	
